# xmcd
#
# Track frame offsets:
#	150
#	1545
#	13472
#	25785
#	37513
#	48739
#	62026
#	73902
#	85290
#	95418
#	106692
#	118282
#	128183
#	138808
#	149871
#	162109
#	175326
#	187641
#	202537
#	214359
#	226350
#
# Disc length: 3161 seconds
#
# Revision: 0
# Processed by: cddbd v1.5.2PL0 Copyright (c) Steve Scherf et al.
# Submitted via: dBpowerAMP V4.0
#
DISCID=1b0c5715
DTITLE=Roland "Soldat" Lebrun - Les Années Starr 1942-1953 CD1
DYEAR=1900
DGENRE=
TTITLE0=Intro XXI-21
TTITLE1=À celle que l'on n'oublie pas
TTITLE2=Adieu chérie
TTITLE3=Amour victoire liberté
TTITLE4=Au bord de la mer argentée
TTITLE5=Au début de la vie
TTITLE6=Chanson du nouvel an
TTITLE7=Chantons notre amour
TTITLE8=Courageux Canadiens
TTITLE9=Dans un songe
TTITLE10=Des roses pour toi
TTITLE11=Donne-moi ton coeur
TTITLE12=Entre tes bras
TTITLE13=Le Gondolier de Venise
TTITLE14=Le Grand jardin de l'amour
TTITLE15=Grand-maman
TTITLE16=J'ai pleuré trois fois
TTITLE17=J'ai quec'chose dans le coeur
TTITLE18=Je les vengerai
TTITLE19=Je savais que tu viendrais
TTITLE20=L'Adieu du soldat
EXTD=
EXTT0=
EXTT1=
EXTT2=
EXTT3=
EXTT4=
EXTT5=
EXTT6=
EXTT7=
EXTT8=
EXTT9=
EXTT10=
EXTT11=
EXTT12=
EXTT13=
EXTT14=
EXTT15=
EXTT16=
EXTT17=
EXTT18=
EXTT19=
EXTT20=
PLAYORDER=
